<svg xmlns="http://www.w3.org/2000/svg" width="16" height="16" viewBox="0 0 24 24">
  <path fill="#555555" d="M5 4.75A2.75 2.75 0 0 0 2.25 7.5v9A2.75 2.75 0 0 0 5 19.25h9a.75.75 0 0 0 0-1.5H5A1.25 1.25 0 0 1 3.75 16.5v-9C3.75 6.81 4.31 6.25 5 6.25h14c.69 0 1.25.56 1.25 1.25v4a.75.75 0 0 0 1.5 0v-4A2.75 2.75 0 0 0 19 4.75z"/>
  <path fill="#555555" d="M6.72 15.53a.75.75 0 0 1 0-1.06l2.78-2.78a1.5 1.5 0 0 1 2.12 0l1.25 1.25l1.63-1.63a1.5 1.5 0 0 1 2.12 0l1.85 1.85a.75.75 0 1 1-1.06 1.06l-1.85-1.85l-1.63 1.63a1.5 1.5 0 0 1-2.12 0l-1.25-1.25l-2.78 2.78a.75.75 0 0 1-1.06 0"/>
  <path fill="#555555" d="M18.5 20.75a4.25 4.25 0 1 1 2.95-7.3a.75.75 0 0 1-1.06 1.06a2.75 2.75 0 1 0 .71 2.74h-1.85a.75.75 0 0 1 0-1.5H22a.75.75 0 0 1 .75.75v2.75a.75.75 0 0 1-1.5 0v-.69a4.23 4.23 0 0 1-2.75 2.19"/>
</svg>
